<?xml version="1.0" encoding="UTF-8"?><svg id="a" xmlns="http://www.w3.org/2000/svg" viewBox="0 0 121.33 24"><defs><style>.b{fill:#18b69b;}</style></defs><path d="M19.64,18.28h-3.8v-7.05c0-1.8-.66-2.69-1.98-2.69-.63,0-1.14,.27-1.53,.81s-.59,1.21-.59,2.02v6.92h-3.82v-7.13c0-1.75-.65-2.62-1.94-2.62-.65,0-1.17,.26-1.56,.77s-.59,1.22-.59,2.1v6.87H0V5.91H3.82v1.93h.05c.39-.66,.95-1.2,1.66-1.61s1.49-.62,2.34-.62c1.75,0,2.94,.77,3.59,2.31,.94-1.54,2.33-2.31,4.16-2.31,2.69,0,4.03,1.66,4.03,4.98v7.69Z"/><path d="M27.56,18.58c-2.06,0-3.68-.58-4.86-1.73s-1.77-2.72-1.77-4.7,.61-3.65,1.84-4.8,2.88-1.73,4.96-1.73,3.66,.58,4.83,1.73,1.75,2.68,1.75,4.58c0,2.05-.6,3.68-1.81,4.87s-2.85,1.79-4.95,1.79Zm.1-10.05c-.9,0-1.6,.31-2.1,.93s-.75,1.5-.75,2.63c0,2.38,.96,3.56,2.87,3.56s2.74-1.22,2.74-3.66c0-2.31-.92-3.47-2.77-3.47Z"/><path d="M43.7,9.36c-.46-.25-.99-.37-1.61-.37-.83,0-1.48,.3-1.94,.91s-.7,1.44-.7,2.48v5.91h-3.82V5.91h3.82v2.29h.05c.6-1.67,1.69-2.51,3.26-2.51,.4,0,.72,.05,.94,.14v3.51Z"/><path d="M48.88,16.87h-.05v7.13h-3.82V5.94h3.82v1.86h.05c.94-1.44,2.27-2.16,3.97-2.16,1.6,0,2.84,.55,3.71,1.65s1.31,2.59,1.31,4.49c0,2.06-.51,3.72-1.53,4.96s-2.37,1.87-4.06,1.87c-1.49,0-2.63-.58-3.41-1.74Zm-.11-5.07v.99c0,.85,.23,1.55,.68,2.09s1.04,.81,1.78,.81c.87,0,1.54-.34,2.02-1.01s.72-1.62,.72-2.86c0-2.17-.85-3.26-2.54-3.26-.78,0-1.42,.3-1.91,.89s-.74,1.37-.74,2.35Z"/><path d="M71.11,18.31h-3.8v-7.03c0-1.81-.66-2.72-1.98-2.72-.68,0-1.22,.25-1.64,.76s-.63,1.15-.63,1.93v7.05h-3.82V0h3.82V7.78h.05c.93-1.43,2.2-2.14,3.8-2.14,2.8,0,4.2,1.69,4.2,5.07v7.6Z"/><g><path class="b" d="M86.1,17.7c-1.26,.61-2.91,.92-4.95,.92-2.66,0-4.75-.78-6.27-2.34s-2.28-3.64-2.28-6.24c0-2.77,.85-5.02,2.56-6.74s3.93-2.58,6.66-2.58c1.69,0,3.12,.21,4.28,.64v3.76c-1.16-.69-2.48-1.04-3.96-1.04-1.63,0-2.94,.51-3.94,1.53s-1.5,2.41-1.5,4.16,.47,3.01,1.41,4,2.21,1.49,3.8,1.49,2.91-.37,4.18-1.11v3.56Z"/><path class="b" d="M107.57,18.31h-3.85V7.95c0-1.12,.05-2.36,.14-3.71h-.1c-.2,1.06-.38,1.83-.54,2.29l-4.06,11.78h-3.19l-4.13-11.66c-.11-.31-.29-1.12-.54-2.42h-.11c.1,1.71,.16,3.2,.16,4.49v9.58h-3.51V.99h5.71l3.54,10.27c.28,.82,.49,1.65,.62,2.48h.07c.22-.96,.45-1.79,.69-2.5l3.54-10.24h5.57V18.31Z"/><path class="b" d="M109.51,17.65v-3.87c.7,.59,1.46,1.03,2.28,1.32s1.65,.44,2.49,.44c.49,0,.92-.04,1.29-.13s.67-.21,.92-.37,.43-.34,.55-.56,.18-.44,.18-.69c0-.34-.1-.64-.29-.91s-.45-.51-.79-.74-.73-.44-1.19-.65-.95-.42-1.49-.64c-1.35-.56-2.36-1.25-3.02-2.07s-1-1.8-1-2.95c0-.9,.18-1.68,.54-2.33s.86-1.18,1.48-1.6,1.34-.73,2.17-.92,1.69-.3,2.61-.3,1.7,.05,2.4,.16,1.34,.28,1.92,.5v3.61c-.29-.2-.6-.38-.95-.53s-.7-.28-1.06-.38-.72-.18-1.08-.22-.7-.07-1.02-.07c-.44,0-.85,.04-1.21,.13s-.67,.2-.92,.36-.44,.34-.58,.55-.21,.45-.21,.72c0,.29,.08,.55,.23,.78s.37,.45,.65,.65,.62,.41,1.03,.6,.86,.4,1.36,.61c.69,.29,1.32,.6,1.87,.92s1.02,.69,1.42,1.11,.7,.88,.91,1.41,.31,1.14,.31,1.84c0,.97-.18,1.78-.55,2.43s-.87,1.19-1.49,1.59-1.36,.7-2.19,.88-1.72,.27-2.64,.27-1.85-.08-2.71-.24-1.6-.4-2.23-.72Z"/></g></svg>